G04 #@! TF.FileFunction,Legend,Top*
%FSLAX46Y46*%
G04 Gerber Fmt 4.6, Leading zero omitted, Abs format (unit mm)*
G04 Created by KiCad (PCBNEW 4.0.7-e2-6376~61~ubuntu18.04.1) date Wed Jul 10 20:30:17 2019*
%MOMM*%
%LPD*%
G01*
G04 APERTURE LIST*
%ADD10C,0.100000*%
%ADD11C,0.150000*%
%ADD12C,0.300000*%
%ADD13C,0.400000*%
%ADD14C,0.120000*%
G04 APERTURE END LIST*
D10*
D11*
X177002200Y-166007200D02*
X177002200Y-198007200D01*
X285002200Y-198007200D01*
X285002200Y-166007200D01*
X177002200Y-166007200D01*
D10*
D11*
X10000000Y-10000000D02*
X10000000Y-200007200D01*
X287002200Y-200007200D01*
X287002200Y-10000000D01*
X10000000Y-10000000D01*
D10*
D11*
X12000000Y-12000000D02*
X12000000Y-198007200D01*
X285002200Y-198007200D01*
X285002200Y-12000000D01*
X12000000Y-12000000D01*
D10*
D11*
X60000000Y-12000000D02*
X60000000Y-10000000D01*
D10*
D11*
X110000000Y-12000000D02*
X110000000Y-10000000D01*
D10*
D11*
X160000000Y-12000000D02*
X160000000Y-10000000D01*
D10*
D11*
X210000000Y-12000000D02*
X210000000Y-10000000D01*
D10*
D11*
X260000000Y-12000000D02*
X260000000Y-10000000D01*
D10*
D11*
X35990476Y-11588095D02*
X35247619Y-11588095D01*
X35619048Y-11588095D02*
X35619048Y-10288095D01*
X35495238Y-10473810D01*
X35371429Y-10597619D01*
X35247619Y-10659524D01*
D10*
D11*
X85247619Y-10411905D02*
X85309524Y-10350000D01*
X85433333Y-10288095D01*
X85742857Y-10288095D01*
X85866667Y-10350000D01*
X85928571Y-10411905D01*
X85990476Y-10535714D01*
X85990476Y-10659524D01*
X85928571Y-10845238D01*
X85185714Y-11588095D01*
X85990476Y-11588095D01*
D10*
D11*
X135185714Y-10288095D02*
X135990476Y-10288095D01*
X135557143Y-10783333D01*
X135742857Y-10783333D01*
X135866667Y-10845238D01*
X135928571Y-10907143D01*
X135990476Y-11030952D01*
X135990476Y-11340476D01*
X135928571Y-11464286D01*
X135866667Y-11526190D01*
X135742857Y-11588095D01*
X135371429Y-11588095D01*
X135247619Y-11526190D01*
X135185714Y-11464286D01*
D10*
D11*
X185866667Y-10721429D02*
X185866667Y-11588095D01*
X185557143Y-10226190D02*
X185247619Y-11154762D01*
X186052381Y-11154762D01*
D10*
D11*
X235928571Y-10288095D02*
X235309524Y-10288095D01*
X235247619Y-10907143D01*
X235309524Y-10845238D01*
X235433333Y-10783333D01*
X235742857Y-10783333D01*
X235866667Y-10845238D01*
X235928571Y-10907143D01*
X235990476Y-11030952D01*
X235990476Y-11340476D01*
X235928571Y-11464286D01*
X235866667Y-11526190D01*
X235742857Y-11588095D01*
X235433333Y-11588095D01*
X235309524Y-11526190D01*
X235247619Y-11464286D01*
D10*
D11*
X285866667Y-10288095D02*
X285619048Y-10288095D01*
X285495238Y-10350000D01*
X285433333Y-10411905D01*
X285309524Y-10597619D01*
X285247619Y-10845238D01*
X285247619Y-11340476D01*
X285309524Y-11464286D01*
X285371429Y-11526190D01*
X285495238Y-11588095D01*
X285742857Y-11588095D01*
X285866667Y-11526190D01*
X285928571Y-11464286D01*
X285990476Y-11340476D01*
X285990476Y-11030952D01*
X285928571Y-10907143D01*
X285866667Y-10845238D01*
X285742857Y-10783333D01*
X285495238Y-10783333D01*
X285371429Y-10845238D01*
X285309524Y-10907143D01*
X285247619Y-11030952D01*
D10*
D11*
X60000000Y-198007200D02*
X60000000Y-200007200D01*
D10*
D11*
X110000000Y-198007200D02*
X110000000Y-200007200D01*
D10*
D11*
X160000000Y-198007200D02*
X160000000Y-200007200D01*
D10*
D11*
X210000000Y-198007200D02*
X210000000Y-200007200D01*
D10*
D11*
X260000000Y-198007200D02*
X260000000Y-200007200D01*
D10*
D11*
X35990476Y-199595295D02*
X35247619Y-199595295D01*
X35619048Y-199595295D02*
X35619048Y-198295295D01*
X35495238Y-198481010D01*
X35371429Y-198604819D01*
X35247619Y-198666724D01*
D10*
D11*
X85247619Y-198419105D02*
X85309524Y-198357200D01*
X85433333Y-198295295D01*
X85742857Y-198295295D01*
X85866667Y-198357200D01*
X85928571Y-198419105D01*
X85990476Y-198542914D01*
X85990476Y-198666724D01*
X85928571Y-198852438D01*
X85185714Y-199595295D01*
X85990476Y-199595295D01*
D10*
D11*
X135185714Y-198295295D02*
X135990476Y-198295295D01*
X135557143Y-198790533D01*
X135742857Y-198790533D01*
X135866667Y-198852438D01*
X135928571Y-198914343D01*
X135990476Y-199038152D01*
X135990476Y-199347676D01*
X135928571Y-199471486D01*
X135866667Y-199533390D01*
X135742857Y-199595295D01*
X135371429Y-199595295D01*
X135247619Y-199533390D01*
X135185714Y-199471486D01*
D10*
D11*
X185866667Y-198728629D02*
X185866667Y-199595295D01*
X185557143Y-198233390D02*
X185247619Y-199161962D01*
X186052381Y-199161962D01*
D10*
D11*
X235928571Y-198295295D02*
X235309524Y-198295295D01*
X235247619Y-198914343D01*
X235309524Y-198852438D01*
X235433333Y-198790533D01*
X235742857Y-198790533D01*
X235866667Y-198852438D01*
X235928571Y-198914343D01*
X235990476Y-199038152D01*
X235990476Y-199347676D01*
X235928571Y-199471486D01*
X235866667Y-199533390D01*
X235742857Y-199595295D01*
X235433333Y-199595295D01*
X235309524Y-199533390D01*
X235247619Y-199471486D01*
D10*
D11*
X285866667Y-198295295D02*
X285619048Y-198295295D01*
X285495238Y-198357200D01*
X285433333Y-198419105D01*
X285309524Y-198604819D01*
X285247619Y-198852438D01*
X285247619Y-199347676D01*
X285309524Y-199471486D01*
X285371429Y-199533390D01*
X285495238Y-199595295D01*
X285742857Y-199595295D01*
X285866667Y-199533390D01*
X285928571Y-199471486D01*
X285990476Y-199347676D01*
X285990476Y-199038152D01*
X285928571Y-198914343D01*
X285866667Y-198852438D01*
X285742857Y-198790533D01*
X285495238Y-198790533D01*
X285371429Y-198852438D01*
X285309524Y-198914343D01*
X285247619Y-199038152D01*
D10*
D11*
X10000000Y-60000000D02*
X12000000Y-60000000D01*
D10*
D11*
X10000000Y-110000000D02*
X12000000Y-110000000D01*
D10*
D11*
X10000000Y-160000000D02*
X12000000Y-160000000D01*
D10*
D11*
X10690476Y-35216667D02*
X11309524Y-35216667D01*
X10566667Y-35588095D02*
X11000000Y-34288095D01*
X11433333Y-35588095D01*
D10*
D11*
X11092857Y-84907143D02*
X11278571Y-84969048D01*
X11340476Y-85030952D01*
X11402381Y-85154762D01*
X11402381Y-85340476D01*
X11340476Y-85464286D01*
X11278571Y-85526190D01*
X11154762Y-85588095D01*
X10659524Y-85588095D01*
X10659524Y-84288095D01*
X11092857Y-84288095D01*
X11216667Y-84350000D01*
X11278571Y-84411905D01*
X11340476Y-84535714D01*
X11340476Y-84659524D01*
X11278571Y-84783333D01*
X11216667Y-84845238D01*
X11092857Y-84907143D01*
X10659524Y-84907143D01*
D10*
D11*
X11402381Y-135464286D02*
X11340476Y-135526190D01*
X11154762Y-135588095D01*
X11030952Y-135588095D01*
X10845238Y-135526190D01*
X10721429Y-135402381D01*
X10659524Y-135278571D01*
X10597619Y-135030952D01*
X10597619Y-134845238D01*
X10659524Y-134597619D01*
X10721429Y-134473810D01*
X10845238Y-134350000D01*
X11030952Y-134288095D01*
X11154762Y-134288095D01*
X11340476Y-134350000D01*
X11402381Y-134411905D01*
D10*
D11*
X10659524Y-185588095D02*
X10659524Y-184288095D01*
X10969048Y-184288095D01*
X11154762Y-184350000D01*
X11278571Y-184473810D01*
X11340476Y-184597619D01*
X11402381Y-184845238D01*
X11402381Y-185030952D01*
X11340476Y-185278571D01*
X11278571Y-185402381D01*
X11154762Y-185526190D01*
X10969048Y-185588095D01*
X10659524Y-185588095D01*
D10*
D11*
X287002200Y-60000000D02*
X285002200Y-60000000D01*
D10*
D11*
X287002200Y-110000000D02*
X285002200Y-110000000D01*
D10*
D11*
X287002200Y-160000000D02*
X285002200Y-160000000D01*
D10*
D11*
X285692676Y-35216667D02*
X286311724Y-35216667D01*
X285568867Y-35588095D02*
X286002200Y-34288095D01*
X286435533Y-35588095D01*
D10*
D11*
X286095057Y-84907143D02*
X286280771Y-84969048D01*
X286342676Y-85030952D01*
X286404581Y-85154762D01*
X286404581Y-85340476D01*
X286342676Y-85464286D01*
X286280771Y-85526190D01*
X286156962Y-85588095D01*
X285661724Y-85588095D01*
X285661724Y-84288095D01*
X286095057Y-84288095D01*
X286218867Y-84350000D01*
X286280771Y-84411905D01*
X286342676Y-84535714D01*
X286342676Y-84659524D01*
X286280771Y-84783333D01*
X286218867Y-84845238D01*
X286095057Y-84907143D01*
X285661724Y-84907143D01*
D10*
D11*
X286404581Y-135464286D02*
X286342676Y-135526190D01*
X286156962Y-135588095D01*
X286033152Y-135588095D01*
X285847438Y-135526190D01*
X285723629Y-135402381D01*
X285661724Y-135278571D01*
X285599819Y-135030952D01*
X285599819Y-134845238D01*
X285661724Y-134597619D01*
X285723629Y-134473810D01*
X285847438Y-134350000D01*
X286033152Y-134288095D01*
X286156962Y-134288095D01*
X286342676Y-134350000D01*
X286404581Y-134411905D01*
D10*
D11*
X285661724Y-185588095D02*
X285661724Y-184288095D01*
X285971248Y-184288095D01*
X286156962Y-184350000D01*
X286280771Y-184473810D01*
X286342676Y-184597619D01*
X286404581Y-184845238D01*
X286404581Y-185030952D01*
X286342676Y-185278571D01*
X286280771Y-185402381D01*
X286156962Y-185526190D01*
X285971248Y-185588095D01*
X285661724Y-185588095D01*
D10*
D11*
X200359343Y-193785771D02*
X200359343Y-192285771D01*
X200716486Y-192285771D01*
X200930771Y-192357200D01*
X201073629Y-192500057D01*
X201145057Y-192642914D01*
X201216486Y-192928629D01*
X201216486Y-193142914D01*
X201145057Y-193428629D01*
X201073629Y-193571486D01*
X200930771Y-193714343D01*
X200716486Y-193785771D01*
X200359343Y-193785771D01*
X202502200Y-193785771D02*
X202502200Y-193000057D01*
X202430771Y-192857200D01*
X202287914Y-192785771D01*
X202002200Y-192785771D01*
X201859343Y-192857200D01*
X202502200Y-193714343D02*
X202359343Y-193785771D01*
X202002200Y-193785771D01*
X201859343Y-193714343D01*
X201787914Y-193571486D01*
X201787914Y-193428629D01*
X201859343Y-193285771D01*
X202002200Y-193214343D01*
X202359343Y-193214343D01*
X202502200Y-193142914D01*
X203002200Y-192785771D02*
X203573629Y-192785771D01*
X203216486Y-192285771D02*
X203216486Y-193571486D01*
X203287914Y-193714343D01*
X203430772Y-193785771D01*
X203573629Y-193785771D01*
X204645057Y-193714343D02*
X204502200Y-193785771D01*
X204216486Y-193785771D01*
X204073629Y-193714343D01*
X204002200Y-193571486D01*
X204002200Y-193000057D01*
X204073629Y-192857200D01*
X204216486Y-192785771D01*
X204502200Y-192785771D01*
X204645057Y-192857200D01*
X204716486Y-193000057D01*
X204716486Y-193142914D01*
X204002200Y-193285771D01*
X205359343Y-193642914D02*
X205430771Y-193714343D01*
X205359343Y-193785771D01*
X205287914Y-193714343D01*
X205359343Y-193642914D01*
X205359343Y-193785771D01*
X205359343Y-192857200D02*
X205430771Y-192928629D01*
X205359343Y-193000057D01*
X205287914Y-192928629D01*
X205359343Y-192857200D01*
X205359343Y-193000057D01*
D10*
D11*
X177002200Y-194507200D02*
X285002200Y-194507200D01*
D10*
D11*
X178359343Y-196585771D02*
X178359343Y-195085771D01*
X179216486Y-196585771D02*
X178573629Y-195728629D01*
X179216486Y-195085771D02*
X178359343Y-195942914D01*
X179859343Y-196585771D02*
X179859343Y-195585771D01*
X179859343Y-195085771D02*
X179787914Y-195157200D01*
X179859343Y-195228629D01*
X179930771Y-195157200D01*
X179859343Y-195085771D01*
X179859343Y-195228629D01*
X181430772Y-196442914D02*
X181359343Y-196514343D01*
X181145057Y-196585771D01*
X181002200Y-196585771D01*
X180787915Y-196514343D01*
X180645057Y-196371486D01*
X180573629Y-196228629D01*
X180502200Y-195942914D01*
X180502200Y-195728629D01*
X180573629Y-195442914D01*
X180645057Y-195300057D01*
X180787915Y-195157200D01*
X181002200Y-195085771D01*
X181145057Y-195085771D01*
X181359343Y-195157200D01*
X181430772Y-195228629D01*
X182716486Y-196585771D02*
X182716486Y-195800057D01*
X182645057Y-195657200D01*
X182502200Y-195585771D01*
X182216486Y-195585771D01*
X182073629Y-195657200D01*
X182716486Y-196514343D02*
X182573629Y-196585771D01*
X182216486Y-196585771D01*
X182073629Y-196514343D01*
X182002200Y-196371486D01*
X182002200Y-196228629D01*
X182073629Y-196085771D01*
X182216486Y-196014343D01*
X182573629Y-196014343D01*
X182716486Y-195942914D01*
X184073629Y-196585771D02*
X184073629Y-195085771D01*
X184073629Y-196514343D02*
X183930772Y-196585771D01*
X183645058Y-196585771D01*
X183502200Y-196514343D01*
X183430772Y-196442914D01*
X183359343Y-196300057D01*
X183359343Y-195871486D01*
X183430772Y-195728629D01*
X183502200Y-195657200D01*
X183645058Y-195585771D01*
X183930772Y-195585771D01*
X184073629Y-195657200D01*
X185930772Y-195800057D02*
X186430772Y-195800057D01*
X186645058Y-196585771D02*
X185930772Y-196585771D01*
X185930772Y-195085771D01*
X186645058Y-195085771D01*
X187287915Y-196442914D02*
X187359343Y-196514343D01*
X187287915Y-196585771D01*
X187216486Y-196514343D01*
X187287915Y-196442914D01*
X187287915Y-196585771D01*
X188002201Y-196585771D02*
X188002201Y-195085771D01*
X188359344Y-195085771D01*
X188573629Y-195157200D01*
X188716487Y-195300057D01*
X188787915Y-195442914D01*
X188859344Y-195728629D01*
X188859344Y-195942914D01*
X188787915Y-196228629D01*
X188716487Y-196371486D01*
X188573629Y-196514343D01*
X188359344Y-196585771D01*
X188002201Y-196585771D01*
X189502201Y-196442914D02*
X189573629Y-196514343D01*
X189502201Y-196585771D01*
X189430772Y-196514343D01*
X189502201Y-196442914D01*
X189502201Y-196585771D01*
X190145058Y-196157200D02*
X190859344Y-196157200D01*
X190002201Y-196585771D02*
X190502201Y-195085771D01*
X191002201Y-196585771D01*
X191502201Y-196442914D02*
X191573629Y-196514343D01*
X191502201Y-196585771D01*
X191430772Y-196514343D01*
X191502201Y-196442914D01*
X191502201Y-196585771D01*
X194502201Y-196585771D02*
X194502201Y-195085771D01*
X194645058Y-196014343D02*
X195073629Y-196585771D01*
X195073629Y-195585771D02*
X194502201Y-196157200D01*
X195716487Y-196585771D02*
X195716487Y-195585771D01*
X195716487Y-195085771D02*
X195645058Y-195157200D01*
X195716487Y-195228629D01*
X195787915Y-195157200D01*
X195716487Y-195085771D01*
X195716487Y-195228629D01*
X197073630Y-196514343D02*
X196930773Y-196585771D01*
X196645059Y-196585771D01*
X196502201Y-196514343D01*
X196430773Y-196442914D01*
X196359344Y-196300057D01*
X196359344Y-195871486D01*
X196430773Y-195728629D01*
X196502201Y-195657200D01*
X196645059Y-195585771D01*
X196930773Y-195585771D01*
X197073630Y-195657200D01*
X198359344Y-196585771D02*
X198359344Y-195800057D01*
X198287915Y-195657200D01*
X198145058Y-195585771D01*
X197859344Y-195585771D01*
X197716487Y-195657200D01*
X198359344Y-196514343D02*
X198216487Y-196585771D01*
X197859344Y-196585771D01*
X197716487Y-196514343D01*
X197645058Y-196371486D01*
X197645058Y-196228629D01*
X197716487Y-196085771D01*
X197859344Y-196014343D01*
X198216487Y-196014343D01*
X198359344Y-195942914D01*
X199716487Y-196585771D02*
X199716487Y-195085771D01*
X199716487Y-196514343D02*
X199573630Y-196585771D01*
X199287916Y-196585771D01*
X199145058Y-196514343D01*
X199073630Y-196442914D01*
X199002201Y-196300057D01*
X199002201Y-195871486D01*
X199073630Y-195728629D01*
X199145058Y-195657200D01*
X199287916Y-195585771D01*
X199573630Y-195585771D01*
X199716487Y-195657200D01*
X202216487Y-195585771D02*
X202216487Y-196585771D01*
X201859344Y-195014343D02*
X201502201Y-196085771D01*
X202430773Y-196085771D01*
X203002201Y-196442914D02*
X203073629Y-196514343D01*
X203002201Y-196585771D01*
X202930772Y-196514343D01*
X203002201Y-196442914D01*
X203002201Y-196585771D01*
X204002201Y-195085771D02*
X204145058Y-195085771D01*
X204287915Y-195157200D01*
X204359344Y-195228629D01*
X204430773Y-195371486D01*
X204502201Y-195657200D01*
X204502201Y-196014343D01*
X204430773Y-196300057D01*
X204359344Y-196442914D01*
X204287915Y-196514343D01*
X204145058Y-196585771D01*
X204002201Y-196585771D01*
X203859344Y-196514343D01*
X203787915Y-196442914D01*
X203716487Y-196300057D01*
X203645058Y-196014343D01*
X203645058Y-195657200D01*
X203716487Y-195371486D01*
X203787915Y-195228629D01*
X203859344Y-195157200D01*
X204002201Y-195085771D01*
X205145058Y-196442914D02*
X205216486Y-196514343D01*
X205145058Y-196585771D01*
X205073629Y-196514343D01*
X205145058Y-196442914D01*
X205145058Y-196585771D01*
X205716487Y-195085771D02*
X206716487Y-195085771D01*
X206073630Y-196585771D01*
X207287915Y-196014343D02*
X208430772Y-196014343D01*
X209716486Y-196514343D02*
X209573629Y-196585771D01*
X209287915Y-196585771D01*
X209145058Y-196514343D01*
X209073629Y-196371486D01*
X209073629Y-195800057D01*
X209145058Y-195657200D01*
X209287915Y-195585771D01*
X209573629Y-195585771D01*
X209716486Y-195657200D01*
X209787915Y-195800057D01*
X209787915Y-195942914D01*
X209073629Y-196085771D01*
X210359343Y-195228629D02*
X210430772Y-195157200D01*
X210573629Y-195085771D01*
X210930772Y-195085771D01*
X211073629Y-195157200D01*
X211145058Y-195228629D01*
X211216486Y-195371486D01*
X211216486Y-195514343D01*
X211145058Y-195728629D01*
X210287915Y-196585771D01*
X211216486Y-196585771D01*
X211859343Y-196014343D02*
X213002200Y-196014343D01*
X214359343Y-195085771D02*
X214073629Y-195085771D01*
X213930772Y-195157200D01*
X213859343Y-195228629D01*
X213716486Y-195442914D01*
X213645057Y-195728629D01*
X213645057Y-196300057D01*
X213716486Y-196442914D01*
X213787914Y-196514343D01*
X213930772Y-196585771D01*
X214216486Y-196585771D01*
X214359343Y-196514343D01*
X214430772Y-196442914D01*
X214502200Y-196300057D01*
X214502200Y-195942914D01*
X214430772Y-195800057D01*
X214359343Y-195728629D01*
X214216486Y-195657200D01*
X213930772Y-195657200D01*
X213787914Y-195728629D01*
X213716486Y-195800057D01*
X213645057Y-195942914D01*
X215002200Y-195085771D02*
X215930771Y-195085771D01*
X215430771Y-195657200D01*
X215645057Y-195657200D01*
X215787914Y-195728629D01*
X215859343Y-195800057D01*
X215930771Y-195942914D01*
X215930771Y-196300057D01*
X215859343Y-196442914D01*
X215787914Y-196514343D01*
X215645057Y-196585771D01*
X215216485Y-196585771D01*
X215073628Y-196514343D01*
X215002200Y-196442914D01*
X216430771Y-195085771D02*
X217430771Y-195085771D01*
X216787914Y-196585771D01*
X218645056Y-195085771D02*
X218359342Y-195085771D01*
X218216485Y-195157200D01*
X218145056Y-195228629D01*
X218002199Y-195442914D01*
X217930770Y-195728629D01*
X217930770Y-196300057D01*
X218002199Y-196442914D01*
X218073627Y-196514343D01*
X218216485Y-196585771D01*
X218502199Y-196585771D01*
X218645056Y-196514343D01*
X218716485Y-196442914D01*
X218787913Y-196300057D01*
X218787913Y-195942914D01*
X218716485Y-195800057D01*
X218645056Y-195728629D01*
X218502199Y-195657200D01*
X218216485Y-195657200D01*
X218073627Y-195728629D01*
X218002199Y-195800057D01*
X217930770Y-195942914D01*
X220073627Y-195085771D02*
X219787913Y-195085771D01*
X219645056Y-195157200D01*
X219573627Y-195228629D01*
X219430770Y-195442914D01*
X219359341Y-195728629D01*
X219359341Y-196300057D01*
X219430770Y-196442914D01*
X219502198Y-196514343D01*
X219645056Y-196585771D01*
X219930770Y-196585771D01*
X220073627Y-196514343D01*
X220145056Y-196442914D01*
X220216484Y-196300057D01*
X220216484Y-195942914D01*
X220145056Y-195800057D01*
X220073627Y-195728629D01*
X219930770Y-195657200D01*
X219645056Y-195657200D01*
X219502198Y-195728629D01*
X219430770Y-195800057D01*
X219359341Y-195942914D01*
X221645055Y-196585771D02*
X220787912Y-196585771D01*
X221216484Y-196585771D02*
X221216484Y-195085771D01*
X221073627Y-195300057D01*
X220930769Y-195442914D01*
X220787912Y-195514343D01*
X219073627Y-194827200D02*
X221930769Y-194827200D01*
X222930769Y-195585771D02*
X222930769Y-196585771D01*
X222287912Y-195585771D02*
X222287912Y-196371486D01*
X222359340Y-196514343D01*
X222502198Y-196585771D01*
X222716483Y-196585771D01*
X222859340Y-196514343D01*
X222930769Y-196442914D01*
X223645055Y-196585771D02*
X223645055Y-195085771D01*
X223645055Y-195657200D02*
X223787912Y-195585771D01*
X224073626Y-195585771D01*
X224216483Y-195657200D01*
X224287912Y-195728629D01*
X224359341Y-195871486D01*
X224359341Y-196300057D01*
X224287912Y-196442914D01*
X224216483Y-196514343D01*
X224073626Y-196585771D01*
X223787912Y-196585771D01*
X223645055Y-196514343D01*
X225645055Y-195585771D02*
X225645055Y-196585771D01*
X225002198Y-195585771D02*
X225002198Y-196371486D01*
X225073626Y-196514343D01*
X225216484Y-196585771D01*
X225430769Y-196585771D01*
X225573626Y-196514343D01*
X225645055Y-196442914D01*
X226359341Y-195585771D02*
X226359341Y-196585771D01*
X226359341Y-195728629D02*
X226430769Y-195657200D01*
X226573627Y-195585771D01*
X226787912Y-195585771D01*
X226930769Y-195657200D01*
X227002198Y-195800057D01*
X227002198Y-196585771D01*
X227502198Y-195585771D02*
X228073627Y-195585771D01*
X227716484Y-195085771D02*
X227716484Y-196371486D01*
X227787912Y-196514343D01*
X227930770Y-196585771D01*
X228073627Y-196585771D01*
X229216484Y-195585771D02*
X229216484Y-196585771D01*
X228573627Y-195585771D02*
X228573627Y-196371486D01*
X228645055Y-196514343D01*
X228787913Y-196585771D01*
X229002198Y-196585771D01*
X229145055Y-196514343D01*
X229216484Y-196442914D01*
X230716484Y-196585771D02*
X229859341Y-196585771D01*
X230287913Y-196585771D02*
X230287913Y-195085771D01*
X230145056Y-195300057D01*
X230002198Y-195442914D01*
X229859341Y-195514343D01*
X231573627Y-195728629D02*
X231430769Y-195657200D01*
X231359341Y-195585771D01*
X231287912Y-195442914D01*
X231287912Y-195371486D01*
X231359341Y-195228629D01*
X231430769Y-195157200D01*
X231573627Y-195085771D01*
X231859341Y-195085771D01*
X232002198Y-195157200D01*
X232073627Y-195228629D01*
X232145055Y-195371486D01*
X232145055Y-195442914D01*
X232073627Y-195585771D01*
X232002198Y-195657200D01*
X231859341Y-195728629D01*
X231573627Y-195728629D01*
X231430769Y-195800057D01*
X231359341Y-195871486D01*
X231287912Y-196014343D01*
X231287912Y-196300057D01*
X231359341Y-196442914D01*
X231430769Y-196514343D01*
X231573627Y-196585771D01*
X231859341Y-196585771D01*
X232002198Y-196514343D01*
X232073627Y-196442914D01*
X232145055Y-196300057D01*
X232145055Y-196014343D01*
X232073627Y-195871486D01*
X232002198Y-195800057D01*
X231859341Y-195728629D01*
X232787912Y-196442914D02*
X232859340Y-196514343D01*
X232787912Y-196585771D01*
X232716483Y-196514343D01*
X232787912Y-196442914D01*
X232787912Y-196585771D01*
X233787912Y-195085771D02*
X233930769Y-195085771D01*
X234073626Y-195157200D01*
X234145055Y-195228629D01*
X234216484Y-195371486D01*
X234287912Y-195657200D01*
X234287912Y-196014343D01*
X234216484Y-196300057D01*
X234145055Y-196442914D01*
X234073626Y-196514343D01*
X233930769Y-196585771D01*
X233787912Y-196585771D01*
X233645055Y-196514343D01*
X233573626Y-196442914D01*
X233502198Y-196300057D01*
X233430769Y-196014343D01*
X233430769Y-195657200D01*
X233502198Y-195371486D01*
X233573626Y-195228629D01*
X233645055Y-195157200D01*
X233787912Y-195085771D01*
X235573626Y-195585771D02*
X235573626Y-196585771D01*
X235216483Y-195014343D02*
X234859340Y-196085771D01*
X235787912Y-196085771D01*
X236359340Y-196442914D02*
X236430768Y-196514343D01*
X236359340Y-196585771D01*
X236287911Y-196514343D01*
X236359340Y-196442914D01*
X236359340Y-196585771D01*
X237859340Y-196585771D02*
X237002197Y-196585771D01*
X237430769Y-196585771D02*
X237430769Y-195085771D01*
X237287912Y-195300057D01*
X237145054Y-195442914D01*
X237002197Y-195514343D01*
D10*
D11*
X177002200Y-191507200D02*
X285002200Y-191507200D01*
D10*
D12*
X264216486Y-193785771D02*
X263716486Y-193071486D01*
X263359343Y-193785771D02*
X263359343Y-192285771D01*
X263930771Y-192285771D01*
X264073629Y-192357200D01*
X264145057Y-192428629D01*
X264216486Y-192571486D01*
X264216486Y-192785771D01*
X264145057Y-192928629D01*
X264073629Y-193000057D01*
X263930771Y-193071486D01*
X263359343Y-193071486D01*
X265430771Y-193714343D02*
X265287914Y-193785771D01*
X265002200Y-193785771D01*
X264859343Y-193714343D01*
X264787914Y-193571486D01*
X264787914Y-193000057D01*
X264859343Y-192857200D01*
X265002200Y-192785771D01*
X265287914Y-192785771D01*
X265430771Y-192857200D01*
X265502200Y-193000057D01*
X265502200Y-193142914D01*
X264787914Y-193285771D01*
X266002200Y-192785771D02*
X266359343Y-193785771D01*
X266716485Y-192785771D01*
X267287914Y-193642914D02*
X267359342Y-193714343D01*
X267287914Y-193785771D01*
X267216485Y-193714343D01*
X267287914Y-193642914D01*
X267287914Y-193785771D01*
X267287914Y-192857200D02*
X267359342Y-192928629D01*
X267287914Y-193000057D01*
X267216485Y-192928629D01*
X267287914Y-192857200D01*
X267287914Y-193000057D01*
D10*
D11*
X178287914Y-193714343D02*
X178502200Y-193785771D01*
X178859343Y-193785771D01*
X179002200Y-193714343D01*
X179073629Y-193642914D01*
X179145057Y-193500057D01*
X179145057Y-193357200D01*
X179073629Y-193214343D01*
X179002200Y-193142914D01*
X178859343Y-193071486D01*
X178573629Y-193000057D01*
X178430771Y-192928629D01*
X178359343Y-192857200D01*
X178287914Y-192714343D01*
X178287914Y-192571486D01*
X178359343Y-192428629D01*
X178430771Y-192357200D01*
X178573629Y-192285771D01*
X178930771Y-192285771D01*
X179145057Y-192357200D01*
X179787914Y-193785771D02*
X179787914Y-192785771D01*
X179787914Y-192285771D02*
X179716485Y-192357200D01*
X179787914Y-192428629D01*
X179859342Y-192357200D01*
X179787914Y-192285771D01*
X179787914Y-192428629D01*
X180359343Y-192785771D02*
X181145057Y-192785771D01*
X180359343Y-193785771D01*
X181145057Y-193785771D01*
X182287914Y-193714343D02*
X182145057Y-193785771D01*
X181859343Y-193785771D01*
X181716486Y-193714343D01*
X181645057Y-193571486D01*
X181645057Y-193000057D01*
X181716486Y-192857200D01*
X181859343Y-192785771D01*
X182145057Y-192785771D01*
X182287914Y-192857200D01*
X182359343Y-193000057D01*
X182359343Y-193142914D01*
X181645057Y-193285771D01*
X183002200Y-193642914D02*
X183073628Y-193714343D01*
X183002200Y-193785771D01*
X182930771Y-193714343D01*
X183002200Y-193642914D01*
X183002200Y-193785771D01*
X183002200Y-192857200D02*
X183073628Y-192928629D01*
X183002200Y-193000057D01*
X182930771Y-192928629D01*
X183002200Y-192857200D01*
X183002200Y-193000057D01*
X184787914Y-193357200D02*
X185502200Y-193357200D01*
X184645057Y-193785771D02*
X185145057Y-192285771D01*
X185645057Y-193785771D01*
X186787914Y-192785771D02*
X186787914Y-193785771D01*
X186430771Y-192214343D02*
X186073628Y-193285771D01*
X187002200Y-193285771D01*
D10*
D11*
X263359343Y-196585771D02*
X263359343Y-195085771D01*
X264716486Y-196585771D02*
X264716486Y-195085771D01*
X264716486Y-196514343D02*
X264573629Y-196585771D01*
X264287915Y-196585771D01*
X264145057Y-196514343D01*
X264073629Y-196442914D01*
X264002200Y-196300057D01*
X264002200Y-195871486D01*
X264073629Y-195728629D01*
X264145057Y-195657200D01*
X264287915Y-195585771D01*
X264573629Y-195585771D01*
X264716486Y-195657200D01*
X265430772Y-196442914D02*
X265502200Y-196514343D01*
X265430772Y-196585771D01*
X265359343Y-196514343D01*
X265430772Y-196442914D01*
X265430772Y-196585771D01*
X265430772Y-195657200D02*
X265502200Y-195728629D01*
X265430772Y-195800057D01*
X265359343Y-195728629D01*
X265430772Y-195657200D01*
X265430772Y-195800057D01*
X268073629Y-196585771D02*
X267216486Y-196585771D01*
X267645058Y-196585771D02*
X267645058Y-195085771D01*
X267502201Y-195300057D01*
X267359343Y-195442914D01*
X267216486Y-195514343D01*
X269787914Y-195014343D02*
X268502200Y-196942914D01*
X271073629Y-196585771D02*
X270216486Y-196585771D01*
X270645058Y-196585771D02*
X270645058Y-195085771D01*
X270502201Y-195300057D01*
X270359343Y-195442914D01*
X270216486Y-195514343D01*
D10*
D11*
X177002200Y-187507200D02*
X285002200Y-187507200D01*
D10*
D13*
X178454581Y-188211962D02*
X179597438Y-188211962D01*
X178776010Y-190211962D02*
X179026010Y-188211962D01*
X180014105Y-190211962D02*
X180180771Y-188878629D01*
X180264105Y-188211962D02*
X180156962Y-188307200D01*
X180240295Y-188402438D01*
X180347439Y-188307200D01*
X180264105Y-188211962D01*
X180240295Y-188402438D01*
X180847438Y-188878629D02*
X181609343Y-188878629D01*
X181216486Y-188211962D02*
X181002200Y-189926248D01*
X181073630Y-190116724D01*
X181252201Y-190211962D01*
X181442677Y-190211962D01*
X182395058Y-190211962D02*
X182216487Y-190116724D01*
X182145057Y-189926248D01*
X182359343Y-188211962D01*
X183930772Y-190116724D02*
X183728391Y-190211962D01*
X183347439Y-190211962D01*
X183168867Y-190116724D01*
X183097438Y-189926248D01*
X183192676Y-189164343D01*
X183311724Y-188973867D01*
X183514105Y-188878629D01*
X183895057Y-188878629D01*
X184073629Y-188973867D01*
X184145057Y-189164343D01*
X184121248Y-189354819D01*
X183145057Y-189545295D01*
X184895057Y-190021486D02*
X184978392Y-190116724D01*
X184871248Y-190211962D01*
X184787915Y-190116724D01*
X184895057Y-190021486D01*
X184871248Y-190211962D01*
X185026010Y-188973867D02*
X185109344Y-189069105D01*
X185002200Y-189164343D01*
X184918867Y-189069105D01*
X185026010Y-188973867D01*
X185002200Y-189164343D01*
D10*
D11*
X178859343Y-185600057D02*
X178359343Y-185600057D01*
X178359343Y-186385771D02*
X178359343Y-184885771D01*
X179073629Y-184885771D01*
X179645057Y-186385771D02*
X179645057Y-185385771D01*
X179645057Y-184885771D02*
X179573628Y-184957200D01*
X179645057Y-185028629D01*
X179716485Y-184957200D01*
X179645057Y-184885771D01*
X179645057Y-185028629D01*
X180573629Y-186385771D02*
X180430771Y-186314343D01*
X180359343Y-186171486D01*
X180359343Y-184885771D01*
X181716485Y-186314343D02*
X181573628Y-186385771D01*
X181287914Y-186385771D01*
X181145057Y-186314343D01*
X181073628Y-186171486D01*
X181073628Y-185600057D01*
X181145057Y-185457200D01*
X181287914Y-185385771D01*
X181573628Y-185385771D01*
X181716485Y-185457200D01*
X181787914Y-185600057D01*
X181787914Y-185742914D01*
X181073628Y-185885771D01*
X182430771Y-186242914D02*
X182502199Y-186314343D01*
X182430771Y-186385771D01*
X182359342Y-186314343D01*
X182430771Y-186242914D01*
X182430771Y-186385771D01*
X182430771Y-185457200D02*
X182502199Y-185528629D01*
X182430771Y-185600057D01*
X182359342Y-185528629D01*
X182430771Y-185457200D01*
X182430771Y-185600057D01*
X184287914Y-186385771D02*
X184287914Y-184885771D01*
X184859342Y-184885771D01*
X185002200Y-184957200D01*
X185073628Y-185028629D01*
X185145057Y-185171486D01*
X185145057Y-185385771D01*
X185073628Y-185528629D01*
X185002200Y-185600057D01*
X184859342Y-185671486D01*
X184287914Y-185671486D01*
X186002200Y-186385771D02*
X185859342Y-186314343D01*
X185787914Y-186171486D01*
X185787914Y-184885771D01*
X187216485Y-186385771D02*
X187216485Y-185600057D01*
X187145056Y-185457200D01*
X187002199Y-185385771D01*
X186716485Y-185385771D01*
X186573628Y-185457200D01*
X187216485Y-186314343D02*
X187073628Y-186385771D01*
X186716485Y-186385771D01*
X186573628Y-186314343D01*
X186502199Y-186171486D01*
X186502199Y-186028629D01*
X186573628Y-185885771D01*
X186716485Y-185814343D01*
X187073628Y-185814343D01*
X187216485Y-185742914D01*
X188573628Y-186314343D02*
X188430771Y-186385771D01*
X188145057Y-186385771D01*
X188002199Y-186314343D01*
X187930771Y-186242914D01*
X187859342Y-186100057D01*
X187859342Y-185671486D01*
X187930771Y-185528629D01*
X188002199Y-185457200D01*
X188145057Y-185385771D01*
X188430771Y-185385771D01*
X188573628Y-185457200D01*
X189859342Y-186385771D02*
X189859342Y-185600057D01*
X189787913Y-185457200D01*
X189645056Y-185385771D01*
X189359342Y-185385771D01*
X189216485Y-185457200D01*
X189859342Y-186314343D02*
X189716485Y-186385771D01*
X189359342Y-186385771D01*
X189216485Y-186314343D01*
X189145056Y-186171486D01*
X189145056Y-186028629D01*
X189216485Y-185885771D01*
X189359342Y-185814343D01*
X189716485Y-185814343D01*
X189859342Y-185742914D01*
X190216485Y-186528629D02*
X191359342Y-186528629D01*
X191645056Y-186314343D02*
X191859342Y-186385771D01*
X192216485Y-186385771D01*
X192359342Y-186314343D01*
X192430771Y-186242914D01*
X192502199Y-186100057D01*
X192502199Y-185957200D01*
X192430771Y-185814343D01*
X192359342Y-185742914D01*
X192216485Y-185671486D01*
X191930771Y-185600057D01*
X191787913Y-185528629D01*
X191716485Y-185457200D01*
X191645056Y-185314343D01*
X191645056Y-185171486D01*
X191716485Y-185028629D01*
X191787913Y-184957200D01*
X191930771Y-184885771D01*
X192287913Y-184885771D01*
X192502199Y-184957200D01*
X193716484Y-186314343D02*
X193573627Y-186385771D01*
X193287913Y-186385771D01*
X193145056Y-186314343D01*
X193073627Y-186171486D01*
X193073627Y-185600057D01*
X193145056Y-185457200D01*
X193287913Y-185385771D01*
X193573627Y-185385771D01*
X193716484Y-185457200D01*
X193787913Y-185600057D01*
X193787913Y-185742914D01*
X193073627Y-185885771D01*
X194430770Y-185385771D02*
X194430770Y-186385771D01*
X194430770Y-185528629D02*
X194502198Y-185457200D01*
X194645056Y-185385771D01*
X194859341Y-185385771D01*
X195002198Y-185457200D01*
X195073627Y-185600057D01*
X195073627Y-186385771D01*
X195716484Y-186314343D02*
X195859341Y-186385771D01*
X196145056Y-186385771D01*
X196287913Y-186314343D01*
X196359341Y-186171486D01*
X196359341Y-186100057D01*
X196287913Y-185957200D01*
X196145056Y-185885771D01*
X195930770Y-185885771D01*
X195787913Y-185814343D01*
X195716484Y-185671486D01*
X195716484Y-185600057D01*
X195787913Y-185457200D01*
X195930770Y-185385771D01*
X196145056Y-185385771D01*
X196287913Y-185457200D01*
X197216485Y-186385771D02*
X197073627Y-186314343D01*
X197002199Y-186242914D01*
X196930770Y-186100057D01*
X196930770Y-185671486D01*
X197002199Y-185528629D01*
X197073627Y-185457200D01*
X197216485Y-185385771D01*
X197430770Y-185385771D01*
X197573627Y-185457200D01*
X197645056Y-185528629D01*
X197716485Y-185671486D01*
X197716485Y-186100057D01*
X197645056Y-186242914D01*
X197573627Y-186314343D01*
X197430770Y-186385771D01*
X197216485Y-186385771D01*
X198359342Y-186385771D02*
X198359342Y-185385771D01*
X198359342Y-185671486D02*
X198430770Y-185528629D01*
X198502199Y-185457200D01*
X198645056Y-185385771D01*
X198787913Y-185385771D01*
X199287913Y-186242914D02*
X199359341Y-186314343D01*
X199287913Y-186385771D01*
X199216484Y-186314343D01*
X199287913Y-186242914D01*
X199287913Y-186385771D01*
X200002199Y-186385771D02*
X200002199Y-184885771D01*
X200145056Y-185814343D02*
X200573627Y-186385771D01*
X200573627Y-185385771D02*
X200002199Y-185957200D01*
X201216485Y-186385771D02*
X201216485Y-185385771D01*
X201216485Y-184885771D02*
X201145056Y-184957200D01*
X201216485Y-185028629D01*
X201287913Y-184957200D01*
X201216485Y-184885771D01*
X201216485Y-185028629D01*
X202573628Y-186314343D02*
X202430771Y-186385771D01*
X202145057Y-186385771D01*
X202002199Y-186314343D01*
X201930771Y-186242914D01*
X201859342Y-186100057D01*
X201859342Y-185671486D01*
X201930771Y-185528629D01*
X202002199Y-185457200D01*
X202145057Y-185385771D01*
X202430771Y-185385771D01*
X202573628Y-185457200D01*
X203859342Y-186385771D02*
X203859342Y-185600057D01*
X203787913Y-185457200D01*
X203645056Y-185385771D01*
X203359342Y-185385771D01*
X203216485Y-185457200D01*
X203859342Y-186314343D02*
X203716485Y-186385771D01*
X203359342Y-186385771D01*
X203216485Y-186314343D01*
X203145056Y-186171486D01*
X203145056Y-186028629D01*
X203216485Y-185885771D01*
X203359342Y-185814343D01*
X203716485Y-185814343D01*
X203859342Y-185742914D01*
X205216485Y-186385771D02*
X205216485Y-184885771D01*
X205216485Y-186314343D02*
X205073628Y-186385771D01*
X204787914Y-186385771D01*
X204645056Y-186314343D01*
X204573628Y-186242914D01*
X204502199Y-186100057D01*
X204502199Y-185671486D01*
X204573628Y-185528629D01*
X204645056Y-185457200D01*
X204787914Y-185385771D01*
X205073628Y-185385771D01*
X205216485Y-185457200D01*
X205573628Y-186528629D02*
X206716485Y-186528629D01*
X207073628Y-185385771D02*
X207073628Y-186885771D01*
X207073628Y-185457200D02*
X207216485Y-185385771D01*
X207502199Y-185385771D01*
X207645056Y-185457200D01*
X207716485Y-185528629D01*
X207787914Y-185671486D01*
X207787914Y-186100057D01*
X207716485Y-186242914D01*
X207645056Y-186314343D01*
X207502199Y-186385771D01*
X207216485Y-186385771D01*
X207073628Y-186314343D01*
X209073628Y-186314343D02*
X208930771Y-186385771D01*
X208645057Y-186385771D01*
X208502199Y-186314343D01*
X208430771Y-186242914D01*
X208359342Y-186100057D01*
X208359342Y-185671486D01*
X208430771Y-185528629D01*
X208502199Y-185457200D01*
X208645057Y-185385771D01*
X208930771Y-185385771D01*
X209073628Y-185457200D01*
X209716485Y-186385771D02*
X209716485Y-184885771D01*
X209716485Y-185457200D02*
X209859342Y-185385771D01*
X210145056Y-185385771D01*
X210287913Y-185457200D01*
X210359342Y-185528629D01*
X210430771Y-185671486D01*
X210430771Y-186100057D01*
X210359342Y-186242914D01*
X210287913Y-186314343D01*
X210145056Y-186385771D01*
X209859342Y-186385771D01*
X209716485Y-186314343D01*
D10*
D11*
X177002200Y-181507200D02*
X285002200Y-181507200D01*
D10*
D11*
X178287914Y-183614343D02*
X178502200Y-183685771D01*
X178859343Y-183685771D01*
X179002200Y-183614343D01*
X179073629Y-183542914D01*
X179145057Y-183400057D01*
X179145057Y-183257200D01*
X179073629Y-183114343D01*
X179002200Y-183042914D01*
X178859343Y-182971486D01*
X178573629Y-182900057D01*
X178430771Y-182828629D01*
X178359343Y-182757200D01*
X178287914Y-182614343D01*
X178287914Y-182471486D01*
X178359343Y-182328629D01*
X178430771Y-182257200D01*
X178573629Y-182185771D01*
X178930771Y-182185771D01*
X179145057Y-182257200D01*
X179787914Y-183685771D02*
X179787914Y-182185771D01*
X180430771Y-183685771D02*
X180430771Y-182900057D01*
X180359342Y-182757200D01*
X180216485Y-182685771D01*
X180002200Y-182685771D01*
X179859342Y-182757200D01*
X179787914Y-182828629D01*
X181716485Y-183614343D02*
X181573628Y-183685771D01*
X181287914Y-183685771D01*
X181145057Y-183614343D01*
X181073628Y-183471486D01*
X181073628Y-182900057D01*
X181145057Y-182757200D01*
X181287914Y-182685771D01*
X181573628Y-182685771D01*
X181716485Y-182757200D01*
X181787914Y-182900057D01*
X181787914Y-183042914D01*
X181073628Y-183185771D01*
X183002199Y-183614343D02*
X182859342Y-183685771D01*
X182573628Y-183685771D01*
X182430771Y-183614343D01*
X182359342Y-183471486D01*
X182359342Y-182900057D01*
X182430771Y-182757200D01*
X182573628Y-182685771D01*
X182859342Y-182685771D01*
X183002199Y-182757200D01*
X183073628Y-182900057D01*
X183073628Y-183042914D01*
X182359342Y-183185771D01*
X183502199Y-182685771D02*
X184073628Y-182685771D01*
X183716485Y-182185771D02*
X183716485Y-183471486D01*
X183787913Y-183614343D01*
X183930771Y-183685771D01*
X184073628Y-183685771D01*
X184573628Y-183542914D02*
X184645056Y-183614343D01*
X184573628Y-183685771D01*
X184502199Y-183614343D01*
X184573628Y-183542914D01*
X184573628Y-183685771D01*
X184573628Y-182757200D02*
X184645056Y-182828629D01*
X184573628Y-182900057D01*
X184502199Y-182828629D01*
X184573628Y-182757200D01*
X184573628Y-182900057D01*
D10*
D11*
X197002200Y-191507200D02*
X197002200Y-194507200D01*
D10*
D11*
X261002200Y-191507200D02*
X261002200Y-198007200D01*
X258954500Y-126971000D02*
X258954500Y-126721000D01*
X251204500Y-126971000D02*
X251204500Y-126636000D01*
X251204500Y-113821000D02*
X251204500Y-114156000D01*
X258954500Y-113821000D02*
X258954500Y-114156000D01*
X258954500Y-126971000D02*
X251204500Y-126971000D01*
X258954500Y-113821000D02*
X251204500Y-113821000D01*
X258954500Y-126721000D02*
X260754500Y-126721000D01*
X264825500Y-130462000D02*
X244825500Y-130462000D01*
X264825500Y-150462000D02*
X264825500Y-130462000D01*
X244825500Y-150462000D02*
X264825500Y-150462000D01*
X244825500Y-130462000D02*
X244825500Y-150462000D01*
X244825500Y-130462000D02*
X244825500Y-150462000D01*
X244825500Y-150462000D02*
X264825500Y-150462000D01*
X264825500Y-150462000D02*
X264825500Y-130462000D01*
X264825500Y-130462000D02*
X244825500Y-130462000D01*
D14*
X248483500Y-136740000D02*
X249483500Y-136740000D01*
X249483500Y-135040000D02*
X248483500Y-135040000D01*
X252047500Y-144784000D02*
X254047500Y-144784000D01*
X254047500Y-142744000D02*
X252047500Y-142744000D01*
X252307500Y-106354000D02*
X248707500Y-106354000D01*
X252831684Y-107081205D02*
G75*
G03X252307500Y-106354000I-2324184J-1122795D01*
G01*
X252863900Y-109302807D02*
G75*
G02X250507500Y-110804000I-2356400J1098807D01*
G01*
X248151100Y-109302807D02*
G75*
G03X250507500Y-110804000I2356400J1098807D01*
G01*
X248183316Y-107081205D02*
G75*
G02X248707500Y-106354000I2324184J-1122795D01*
G01*
X243081500Y-126806000D02*
X245741500Y-126806000D01*
X243081500Y-116586000D02*
X243081500Y-126806000D01*
X245741500Y-116586000D02*
X245741500Y-126806000D01*
X243081500Y-116586000D02*
X245741500Y-116586000D01*
X243081500Y-115316000D02*
X243081500Y-113986000D01*
X243081500Y-113986000D02*
X244411500Y-113986000D01*
X250294719Y-128778000D02*
G75*
G03X250294719Y-128778000I-803219J0D01*
G01*
X264010719Y-102108000D02*
G75*
G03X264010719Y-102108000I-803219J0D01*
G01*
X264010719Y-107442000D02*
G75*
G03X264010719Y-107442000I-803219J0D01*
G01*
X259279500Y-109312000D02*
X259279500Y-108112000D01*
X261039500Y-108112000D02*
X261039500Y-109312000D01*
X255723500Y-109312000D02*
X255723500Y-108112000D01*
X257483500Y-108112000D02*
X257483500Y-109312000D01*
X263851500Y-124552000D02*
X263851500Y-123352000D01*
X265611500Y-123352000D02*
X265611500Y-124552000D01*
X257755500Y-136744000D02*
X257755500Y-135544000D01*
X259515500Y-135544000D02*
X259515500Y-136744000D01*
X263851500Y-116932000D02*
X263851500Y-115732000D01*
X265611500Y-115732000D02*
X265611500Y-116932000D01*
D10*
X252446500Y-134019000D02*
X252821500Y-134019000D01*
X252446500Y-138269000D02*
X252446500Y-134044000D01*
X252821500Y-138269000D02*
X252446500Y-138269000D01*
X256696500Y-134019000D02*
X256446500Y-134019000D01*
X256446500Y-133719000D02*
X256446500Y-134019000D01*
X256696500Y-138269000D02*
X256396500Y-138269000D01*
X256696500Y-138269000D02*
X256696500Y-134019000D01*
D14*
X250161500Y-102752000D02*
X251361500Y-102752000D01*
X251361500Y-104512000D02*
X250161500Y-104512000D01*
X264537500Y-100390000D02*
X264537500Y-97730000D01*
X246697500Y-100390000D02*
X264537500Y-100390000D01*
X246697500Y-97730000D02*
X264537500Y-97730000D01*
X246697500Y-100390000D02*
X246697500Y-97730000D01*
X245427500Y-100390000D02*
X244097500Y-100390000D01*
X244097500Y-100390000D02*
X244097500Y-99060000D01*
X260023500Y-144688000D02*
X260023500Y-145888000D01*
X258263500Y-145888000D02*
X258263500Y-144688000D01*
X252047500Y-145840000D02*
X254047500Y-145840000D01*
X254047500Y-148800000D02*
X252047500Y-148800000D01*
X264010719Y-104648000D02*
G75*
G03X264010719Y-104648000I-803219J0D01*
G01*
D11*
X254317595Y-127348381D02*
X254317595Y-128157905D01*
X254365214Y-128253143D01*
X254412833Y-128300762D01*
X254508071Y-128348381D01*
X254698548Y-128348381D01*
X254793786Y-128300762D01*
X254841405Y-128253143D01*
X254889024Y-128157905D01*
X254889024Y-127348381D01*
X255317595Y-127443619D02*
X255365214Y-127396000D01*
X255460452Y-127348381D01*
X255698548Y-127348381D01*
X255793786Y-127396000D01*
X255841405Y-127443619D01*
X255889024Y-127538857D01*
X255889024Y-127634095D01*
X255841405Y-127776952D01*
X255269976Y-128348381D01*
X255889024Y-128348381D01*
X254063595Y-139914381D02*
X254063595Y-140723905D01*
X254111214Y-140819143D01*
X254158833Y-140866762D01*
X254254071Y-140914381D01*
X254444548Y-140914381D01*
X254539786Y-140866762D01*
X254587405Y-140819143D01*
X254635024Y-140723905D01*
X254635024Y-139914381D01*
X255015976Y-139914381D02*
X255635024Y-139914381D01*
X255301690Y-140295333D01*
X255444548Y-140295333D01*
X255539786Y-140342952D01*
X255587405Y-140390571D01*
X255635024Y-140485810D01*
X255635024Y-140723905D01*
X255587405Y-140819143D01*
X255539786Y-140866762D01*
X255444548Y-140914381D01*
X255158833Y-140914381D01*
X255063595Y-140866762D01*
X255015976Y-140819143D01*
X248816834Y-137997143D02*
X248769215Y-138044762D01*
X248626358Y-138092381D01*
X248531120Y-138092381D01*
X248388262Y-138044762D01*
X248293024Y-137949524D01*
X248245405Y-137854286D01*
X248197786Y-137663810D01*
X248197786Y-137520952D01*
X248245405Y-137330476D01*
X248293024Y-137235238D01*
X248388262Y-137140000D01*
X248531120Y-137092381D01*
X248626358Y-137092381D01*
X248769215Y-137140000D01*
X248816834Y-137187619D01*
X249769215Y-138092381D02*
X249197786Y-138092381D01*
X249483500Y-138092381D02*
X249483500Y-137092381D01*
X249388262Y-137235238D01*
X249293024Y-137330476D01*
X249197786Y-137378095D01*
X252880834Y-145871143D02*
X252833215Y-145918762D01*
X252690358Y-145966381D01*
X252595120Y-145966381D01*
X252452262Y-145918762D01*
X252357024Y-145823524D01*
X252309405Y-145728286D01*
X252261786Y-145537810D01*
X252261786Y-145394952D01*
X252309405Y-145204476D01*
X252357024Y-145109238D01*
X252452262Y-145014000D01*
X252595120Y-144966381D01*
X252690358Y-144966381D01*
X252833215Y-145014000D01*
X252880834Y-145061619D01*
X253261786Y-145061619D02*
X253309405Y-145014000D01*
X253404643Y-144966381D01*
X253642739Y-144966381D01*
X253737977Y-145014000D01*
X253785596Y-145061619D01*
X253833215Y-145156857D01*
X253833215Y-145252095D01*
X253785596Y-145394952D01*
X253214167Y-145966381D01*
X253833215Y-145966381D01*
X249769405Y-112216381D02*
X249769405Y-111216381D01*
X250007500Y-111216381D01*
X250150358Y-111264000D01*
X250245596Y-111359238D01*
X250293215Y-111454476D01*
X250340834Y-111644952D01*
X250340834Y-111787810D01*
X250293215Y-111978286D01*
X250245596Y-112073524D01*
X250150358Y-112168762D01*
X250007500Y-112216381D01*
X249769405Y-112216381D01*
X251293215Y-112216381D02*
X250721786Y-112216381D01*
X251007500Y-112216381D02*
X251007500Y-111216381D01*
X250912262Y-111359238D01*
X250817024Y-111454476D01*
X250721786Y-111502095D01*
X244078167Y-112438381D02*
X244078167Y-113152667D01*
X244030547Y-113295524D01*
X243935309Y-113390762D01*
X243792452Y-113438381D01*
X243697214Y-113438381D01*
X245078167Y-113438381D02*
X244506738Y-113438381D01*
X244792452Y-113438381D02*
X244792452Y-112438381D01*
X244697214Y-112581238D01*
X244601976Y-112676476D01*
X244506738Y-112724095D01*
X249158167Y-126630381D02*
X249158167Y-127344667D01*
X249110547Y-127487524D01*
X249015309Y-127582762D01*
X248872452Y-127630381D01*
X248777214Y-127630381D01*
X249586738Y-126725619D02*
X249634357Y-126678000D01*
X249729595Y-126630381D01*
X249967691Y-126630381D01*
X250062929Y-126678000D01*
X250110548Y-126725619D01*
X250158167Y-126820857D01*
X250158167Y-126916095D01*
X250110548Y-127058952D01*
X249539119Y-127630381D01*
X250158167Y-127630381D01*
X262874167Y-99960381D02*
X262874167Y-100674667D01*
X262826547Y-100817524D01*
X262731309Y-100912762D01*
X262588452Y-100960381D01*
X262493214Y-100960381D01*
X263255119Y-99960381D02*
X263874167Y-99960381D01*
X263540833Y-100341333D01*
X263683691Y-100341333D01*
X263778929Y-100388952D01*
X263826548Y-100436571D01*
X263874167Y-100531810D01*
X263874167Y-100769905D01*
X263826548Y-100865143D01*
X263778929Y-100912762D01*
X263683691Y-100960381D01*
X263397976Y-100960381D01*
X263302738Y-100912762D01*
X263255119Y-100865143D01*
X262874167Y-105294381D02*
X262874167Y-106008667D01*
X262826547Y-106151524D01*
X262731309Y-106246762D01*
X262588452Y-106294381D01*
X262493214Y-106294381D01*
X263826548Y-105294381D02*
X263350357Y-105294381D01*
X263302738Y-105770571D01*
X263350357Y-105722952D01*
X263445595Y-105675333D01*
X263683691Y-105675333D01*
X263778929Y-105722952D01*
X263826548Y-105770571D01*
X263874167Y-105865810D01*
X263874167Y-106103905D01*
X263826548Y-106199143D01*
X263778929Y-106246762D01*
X263683691Y-106294381D01*
X263445595Y-106294381D01*
X263350357Y-106246762D01*
X263302738Y-106199143D01*
X262311881Y-108878666D02*
X261835690Y-109212000D01*
X262311881Y-109450095D02*
X261311881Y-109450095D01*
X261311881Y-109069142D01*
X261359500Y-108973904D01*
X261407119Y-108926285D01*
X261502357Y-108878666D01*
X261645214Y-108878666D01*
X261740452Y-108926285D01*
X261788071Y-108973904D01*
X261835690Y-109069142D01*
X261835690Y-109450095D01*
X262311881Y-107926285D02*
X262311881Y-108497714D01*
X262311881Y-108212000D02*
X261311881Y-108212000D01*
X261454738Y-108307238D01*
X261549976Y-108402476D01*
X261597595Y-108497714D01*
X258755881Y-108878666D02*
X258279690Y-109212000D01*
X258755881Y-109450095D02*
X257755881Y-109450095D01*
X257755881Y-109069142D01*
X257803500Y-108973904D01*
X257851119Y-108926285D01*
X257946357Y-108878666D01*
X258089214Y-108878666D01*
X258184452Y-108926285D01*
X258232071Y-108973904D01*
X258279690Y-109069142D01*
X258279690Y-109450095D01*
X257851119Y-108497714D02*
X257803500Y-108450095D01*
X257755881Y-108354857D01*
X257755881Y-108116761D01*
X257803500Y-108021523D01*
X257851119Y-107973904D01*
X257946357Y-107926285D01*
X258041595Y-107926285D01*
X258184452Y-107973904D01*
X258755881Y-108545333D01*
X258755881Y-107926285D01*
X266883881Y-124118666D02*
X266407690Y-124452000D01*
X266883881Y-124690095D02*
X265883881Y-124690095D01*
X265883881Y-124309142D01*
X265931500Y-124213904D01*
X265979119Y-124166285D01*
X266074357Y-124118666D01*
X266217214Y-124118666D01*
X266312452Y-124166285D01*
X266360071Y-124213904D01*
X266407690Y-124309142D01*
X266407690Y-124690095D01*
X265883881Y-123785333D02*
X265883881Y-123166285D01*
X266264833Y-123499619D01*
X266264833Y-123356761D01*
X266312452Y-123261523D01*
X266360071Y-123213904D01*
X266455310Y-123166285D01*
X266693405Y-123166285D01*
X266788643Y-123213904D01*
X266836262Y-123261523D01*
X266883881Y-123356761D01*
X266883881Y-123642476D01*
X266836262Y-123737714D01*
X266788643Y-123785333D01*
X260787881Y-136310666D02*
X260311690Y-136644000D01*
X260787881Y-136882095D02*
X259787881Y-136882095D01*
X259787881Y-136501142D01*
X259835500Y-136405904D01*
X259883119Y-136358285D01*
X259978357Y-136310666D01*
X260121214Y-136310666D01*
X260216452Y-136358285D01*
X260264071Y-136405904D01*
X260311690Y-136501142D01*
X260311690Y-136882095D01*
X260121214Y-135453523D02*
X260787881Y-135453523D01*
X259740262Y-135691619D02*
X260454548Y-135929714D01*
X260454548Y-135310666D01*
X266883881Y-116498666D02*
X266407690Y-116832000D01*
X266883881Y-117070095D02*
X265883881Y-117070095D01*
X265883881Y-116689142D01*
X265931500Y-116593904D01*
X265979119Y-116546285D01*
X266074357Y-116498666D01*
X266217214Y-116498666D01*
X266312452Y-116546285D01*
X266360071Y-116593904D01*
X266407690Y-116689142D01*
X266407690Y-117070095D01*
X265883881Y-116165333D02*
X265883881Y-115498666D01*
X266883881Y-115927238D01*
X257177157Y-136933268D02*
X257986681Y-136933268D01*
X258081919Y-136885649D01*
X258129538Y-136838030D01*
X258177157Y-136742792D01*
X258177157Y-136552315D01*
X258129538Y-136457077D01*
X258081919Y-136409458D01*
X257986681Y-136361839D01*
X257177157Y-136361839D01*
X258177157Y-135361839D02*
X258177157Y-135933268D01*
X258177157Y-135647554D02*
X257177157Y-135647554D01*
X257320014Y-135742792D01*
X257415252Y-135838030D01*
X257462871Y-135933268D01*
X250594834Y-105784381D02*
X250261500Y-105308190D01*
X250023405Y-105784381D02*
X250023405Y-104784381D01*
X250404358Y-104784381D01*
X250499596Y-104832000D01*
X250547215Y-104879619D01*
X250594834Y-104974857D01*
X250594834Y-105117714D01*
X250547215Y-105212952D01*
X250499596Y-105260571D01*
X250404358Y-105308190D01*
X250023405Y-105308190D01*
X251166262Y-105212952D02*
X251071024Y-105165333D01*
X251023405Y-105117714D01*
X250975786Y-105022476D01*
X250975786Y-104974857D01*
X251023405Y-104879619D01*
X251071024Y-104832000D01*
X251166262Y-104784381D01*
X251356739Y-104784381D01*
X251451977Y-104832000D01*
X251499596Y-104879619D01*
X251547215Y-104974857D01*
X251547215Y-105022476D01*
X251499596Y-105117714D01*
X251451977Y-105165333D01*
X251356739Y-105212952D01*
X251166262Y-105212952D01*
X251071024Y-105260571D01*
X251023405Y-105308190D01*
X250975786Y-105403429D01*
X250975786Y-105593905D01*
X251023405Y-105689143D01*
X251071024Y-105736762D01*
X251166262Y-105784381D01*
X251356739Y-105784381D01*
X251451977Y-105736762D01*
X251499596Y-105689143D01*
X251547215Y-105593905D01*
X251547215Y-105403429D01*
X251499596Y-105308190D01*
X251451977Y-105260571D01*
X251356739Y-105212952D01*
X242549881Y-99393333D02*
X243264167Y-99393333D01*
X243407024Y-99440953D01*
X243502262Y-99536191D01*
X243549881Y-99679048D01*
X243549881Y-99774286D01*
X242549881Y-98488571D02*
X242549881Y-98679048D01*
X242597500Y-98774286D01*
X242645119Y-98821905D01*
X242787976Y-98917143D01*
X242978452Y-98964762D01*
X243359405Y-98964762D01*
X243454643Y-98917143D01*
X243502262Y-98869524D01*
X243549881Y-98774286D01*
X243549881Y-98583809D01*
X243502262Y-98488571D01*
X243454643Y-98440952D01*
X243359405Y-98393333D01*
X243121310Y-98393333D01*
X243026071Y-98440952D01*
X242978452Y-98488571D01*
X242930833Y-98583809D01*
X242930833Y-98774286D01*
X242978452Y-98869524D01*
X243026071Y-98917143D01*
X243121310Y-98964762D01*
X257895881Y-145454666D02*
X257419690Y-145788000D01*
X257895881Y-146026095D02*
X256895881Y-146026095D01*
X256895881Y-145645142D01*
X256943500Y-145549904D01*
X256991119Y-145502285D01*
X257086357Y-145454666D01*
X257229214Y-145454666D01*
X257324452Y-145502285D01*
X257372071Y-145549904D01*
X257419690Y-145645142D01*
X257419690Y-146026095D01*
X256895881Y-144549904D02*
X256895881Y-145026095D01*
X257372071Y-145073714D01*
X257324452Y-145026095D01*
X257276833Y-144930857D01*
X257276833Y-144692761D01*
X257324452Y-144597523D01*
X257372071Y-144549904D01*
X257467310Y-144502285D01*
X257705405Y-144502285D01*
X257800643Y-144549904D01*
X257848262Y-144597523D01*
X257895881Y-144692761D01*
X257895881Y-144930857D01*
X257848262Y-145026095D01*
X257800643Y-145073714D01*
X252880834Y-150072381D02*
X252547500Y-149596190D01*
X252309405Y-150072381D02*
X252309405Y-149072381D01*
X252690358Y-149072381D01*
X252785596Y-149120000D01*
X252833215Y-149167619D01*
X252880834Y-149262857D01*
X252880834Y-149405714D01*
X252833215Y-149500952D01*
X252785596Y-149548571D01*
X252690358Y-149596190D01*
X252309405Y-149596190D01*
X253737977Y-149072381D02*
X253547500Y-149072381D01*
X253452262Y-149120000D01*
X253404643Y-149167619D01*
X253309405Y-149310476D01*
X253261786Y-149500952D01*
X253261786Y-149881905D01*
X253309405Y-149977143D01*
X253357024Y-150024762D01*
X253452262Y-150072381D01*
X253642739Y-150072381D01*
X253737977Y-150024762D01*
X253785596Y-149977143D01*
X253833215Y-149881905D01*
X253833215Y-149643810D01*
X253785596Y-149548571D01*
X253737977Y-149500952D01*
X253642739Y-149453333D01*
X253452262Y-149453333D01*
X253357024Y-149500952D01*
X253309405Y-149548571D01*
X253261786Y-149643810D01*
X262874167Y-102500381D02*
X262874167Y-103214667D01*
X262826547Y-103357524D01*
X262731309Y-103452762D01*
X262588452Y-103500381D01*
X262493214Y-103500381D01*
X263778929Y-102833714D02*
X263778929Y-103500381D01*
X263540833Y-102452762D02*
X263302738Y-103167048D01*
X263921786Y-103167048D01*
M02*
