M48
;DRILL file {KiCad 4.0.7} date 07/16/19 02:21:18
;FORMAT={3:3/ absolute / metric / suppress leading zeros}
FMAT,2
METRIC,TZ
T1C0.500
T2C0.635
T3C0.800
T4C1.000
%
G90
G05
M71
T1
X247206Y-119634
X247777Y-132461
X250508Y-112268
X251816Y-132436
X252539Y-129032
X256489Y-140767
X256604Y-105156
X259398Y-129032
X262191Y-146812
X263208Y-109220
X263462Y-119634
T2
X249492Y-128778
X263208Y-102108
X263208Y-104648
X263208Y-107442
T3
X247968Y-108204
X250508Y-108204
X253048Y-108204
T4
X244411Y-115316
X244411Y-117856
X244411Y-120396
X244411Y-122936
X244411Y-125476
X244825Y-132462
X244825Y-148462
X245427Y-99060
X247968Y-99060
X250508Y-99060
X253048Y-99060
X255588Y-99060
X258128Y-99060
X260667Y-99060
X263208Y-99060
X264825Y-132462
X264825Y-148462
T0
M30
